<svg version="1.1" xmlns="http://www.w3.org/2000/svg" fill="none" viewBox="0 0 32 32">
<title>statistics</title>
<path fill="#6e78e8" d="M5.053 0h21.895c2.79 0 5.053 2.262 5.053 5.053v21.895c0 2.79-2.262 5.053-5.053 5.053h-21.895c-2.791 0-5.053-2.262-5.053-5.053v-21.895c0-2.791 2.262-5.053 5.053-5.053zM24.842 13.941c1.081 0 1.965-0.926 1.965-2.058s-0.884-2.059-1.965-2.059c-1.081 0-1.965 0.926-1.965 2.059 0 0.185 0.020 0.36 0.069 0.525l-3.488 3.664c-0.157-0.051-0.334-0.072-0.511-0.072s-0.354 0.021-0.511 0.072l-2.505-2.624c0.049-0.165 0.069-0.35 0.069-0.535 0-1.132-0.884-2.058-1.965-2.058s-1.965 0.926-1.965 2.058c0 0.185 0.020 0.371 0.069 0.535l-4.48 4.683c-0.157-0.051-0.324-0.072-0.501-0.072-1.081 0-1.965 0.926-1.965 2.059s0.884 2.058 1.965 2.058 1.965-0.926 1.965-2.058c0-0.185-0.020-0.36-0.069-0.525l4.47-4.693c0.157 0.051 0.334 0.072 0.511 0.072s0.354-0.021 0.511-0.072l2.505 2.625c-0.049 0.165-0.069 0.35-0.069 0.535 0 1.132 0.884 2.059 1.965 2.059s1.965-0.926 1.965-2.059c0-0.185-0.020-0.371-0.069-0.535l3.498-3.654c0.157 0.051 0.324 0.072 0.501 0.072z"></path>
</svg>
