<svg xmlns="http://www.w3.org/2000/svg" width="32" height="32">
  <path fill="#6e78e8" d="M5.053 0h21.895a5.053 5.053 0 0 1 5.053 5.053v21.895a5.053 5.053 0 0 1-5.053 5.053H5.053A5.053 5.053 0 0 1 0 26.948V5.053A5.053 5.053 0 0 1 5.053 0zm19.789 13.941c1.081 0 1.965-.926 1.965-2.058s-.884-2.059-1.965-2.059-1.965.926-1.965 2.059c0 .185.02.36.069.525l-3.488 3.664c-.157-.051-.334-.072-.511-.072s-.354.021-.511.072l-2.505-2.624c.049-.165.069-.35.069-.535 0-1.132-.884-2.058-1.965-2.058s-1.965.926-1.965 2.058c0 .185.02.371.069.535l-4.48 4.683a1.61 1.61 0 0 0-.501-.072c-1.081 0-1.965.926-1.965 2.059s.884 2.058 1.965 2.058 1.965-.926 1.965-2.058c0-.185-.02-.36-.069-.525l4.47-4.693c.157.051.334.072.511.072s.354-.021.511-.072l2.505 2.625c-.049.165-.069.35-.069.535 0 1.132.884 2.059 1.965 2.059s1.965-.926 1.965-2.059a1.9 1.9 0 0 0-.069-.535l3.498-3.654c.157.051.324.072.501.072z"/>
</svg>
