<svg width="40" height="40" viewBox="0 0 40 40" fill="none" xmlns="http://www.w3.org/2000/svg">
<path d="M4.69408 9.52382L24.9583 3.85236L23.8851 1.62825C23.183 0.182586 21.4705 -0.41441 20.0606 0.305497L1.91989 9.52382H4.69408Z" fill="#24CCA7"/>
<path d="M31.0166 3.80957C30.7724 3.80957 30.5282 3.84601 30.284 3.91888L25.6552 5.30342L11.5192 9.52386H27.5645H34.5576L33.6917 6.05035C33.3587 4.69617 32.2376 3.80957 31.0166 3.80957Z" fill="#24CCA7"/>
<path d="M35.4497 10.7158H34.9377H34.2414H33.5452H28.2313H8.70522H6.14486H3.98877H3.58899H2.25042C1.54071 10.7158 0.907355 11.0411 0.494104 11.5536C0.305446 11.7898 0.161707 12.0617 0.0808534 12.3603C0.031443 12.5475 0 12.7435 0 12.9441V13.2115V15.7517V37.7714C0 39.0014 1.00618 39.9997 2.24593 39.9997H35.4452C36.685 39.9997 37.6912 39.0014 37.6912 37.7714V31.5545H24.3638C22.2572 31.5545 20.5458 29.8566 20.5458 27.7665V25.7254V25.0346V24.3439V22.8108C20.5458 21.7858 20.959 20.8544 21.6283 20.1726C22.2212 19.5665 23.0163 19.1565 23.9057 19.054C24.0539 19.0362 24.2066 19.0272 24.3593 19.0272H35.8226H36.5188H37.215H37.6912V12.9441C37.6957 11.7141 36.6895 10.7158 35.4497 10.7158Z" fill="#4A56E2"/>
<path d="M39.2679 21.158C39.0433 20.953 38.7783 20.797 38.4818 20.6945C38.2527 20.6188 38.0102 20.5742 37.7541 20.5742H37.6957H37.6508H36.9546H34.4436H24.3639C23.1242 20.5742 22.118 21.5725 22.118 22.8025V23.9122V24.6029V25.2937V27.7626C22.118 28.9926 23.1242 29.9909 24.3639 29.9909H37.6957H37.7541C38.0102 29.9909 38.2527 29.9463 38.4818 29.8705C38.7783 29.7725 39.0433 29.6121 39.2679 29.4071C39.7171 29.0015 40.0001 28.4133 40.0001 27.7626V22.8025C40.0001 22.1518 39.7171 21.5636 39.2679 21.158ZM29.0534 25.726C29.0534 26.341 28.5503 26.8401 27.9304 26.8401H27.1848C26.5649 26.8401 26.0618 26.341 26.0618 25.726V24.9862C26.0618 24.6297 26.228 24.3132 26.493 24.1127C26.6862 23.9656 26.9243 23.872 27.1848 23.872H27.3735H27.9304C28.5503 23.872 29.0534 24.3712 29.0534 24.9862V25.726Z" fill="#4A56E2"/>
</svg>
